<svg data-v-423bf9ae="" xmlns="http://www.w3.org/2000/svg" viewBox="0 0 278.01304281679364 176" class="iconAbove"><!----><!----><!----><g data-v-423bf9ae="" id="2538853f-451b-443f-a72d-a619b63291f6" fill="white" transform="matrix(4.885993591588033,0,0,4.885993591588033,-4.788271612184644,94.04822296440007)"><path d="M4.91 13.94C6.09 13.94 6.96 13.44 7.67 12.63L7.18 12.11C6.54 12.82 5.87 13.20 4.96 13.20C3.05 13.20 1.85 11.61 1.85 9.13C1.85 6.66 3.05 5.11 4.98 5.11C5.80 5.11 6.45 5.47 6.94 6.01L7.42 5.46C6.92 4.89 6.08 4.37 4.98 4.37C2.62 4.37 0.98 6.20 0.98 9.13C0.98 12.11 2.62 13.94 4.91 13.94ZM14.59 16.65L15.39 16.65L15.39 6.64L14.73 6.64L14.64 7.45L14.62 7.45C13.94 6.83 13.29 6.47 12.45 6.47C10.81 6.47 9.31 7.92 9.31 10.22C9.31 12.61 10.49 13.96 12.28 13.96C13.16 13.96 13.99 13.40 14.63 12.75L14.59 14.13ZM12.40 13.26C10.99 13.26 10.15 12.05 10.15 10.22C10.15 8.48 11.21 7.17 12.56 7.17C13.22 7.17 13.87 7.45 14.59 8.16L14.59 12.00C13.89 12.82 13.15 13.26 12.40 13.26ZM20.37 13.96C21.43 13.96 22.26 13.31 22.97 12.43L23.03 12.43L23.10 13.78L23.77 13.78L23.77 6.64L22.96 6.64L22.96 11.70C22.09 12.75 21.45 13.26 20.57 13.26C19.29 13.26 18.79 12.52 18.79 10.98L18.79 6.64L17.96 6.64L17.96 11.09C17.96 13.01 18.73 13.96 20.37 13.96ZM29.82 13.96C30.98 13.96 31.77 13.54 32.40 13.12L32.09 12.53C31.44 12.98 30.77 13.26 29.90 13.26C28.25 13.26 27.10 12.07 27.09 10.36L32.65 10.36C32.68 10.18 32.68 9.98 32.68 9.79C32.68 7.74 31.51 6.47 29.64 6.47C27.90 6.47 26.24 7.91 26.24 10.22C26.24 12.56 27.86 13.96 29.82 13.96ZM27.08 9.73C27.26 8.12 28.41 7.13 29.64 7.13C31.02 7.13 31.91 8.04 31.91 9.73ZM35.01 13.78L35.83 13.78L35.83 8.71C36.74 7.67 37.35 7.18 38.25 7.18C39.51 7.18 40.03 7.92 40.03 9.44L40.03 13.78L40.84 13.78L40.84 9.32C40.84 7.42 40.08 6.47 38.44 6.47C37.38 6.47 36.58 7.10 35.83 7.98L35.77 7.98L35.69 6.64L35.01 6.64ZM46.86 13.96C47.89 13.96 48.79 13.51 49.50 12.81L49.13 12.28C48.51 12.84 47.78 13.27 46.90 13.27C45.18 13.27 44.03 12.04 44.03 10.22C44.03 8.40 45.21 7.15 46.91 7.15C47.70 7.15 48.33 7.52 48.90 8.09L49.34 7.55C48.78 6.97 48.01 6.47 46.90 6.47C44.87 6.47 43.19 7.83 43.19 10.22C43.19 12.59 44.76 13.96 46.86 13.96ZM55.02 13.96C56.18 13.96 56.97 13.54 57.60 13.12L57.29 12.53C56.64 12.98 55.97 13.26 55.10 13.26C53.45 13.26 52.30 12.07 52.29 10.36L57.85 10.36C57.88 10.18 57.88 9.98 57.88 9.79C57.88 7.74 56.71 6.47 54.84 6.47C53.10 6.47 51.44 7.91 51.44 10.22C51.44 12.56 53.06 13.96 55.02 13.96ZM52.28 9.73C52.46 8.12 53.61 7.13 54.84 7.13C56.22 7.13 57.11 8.04 57.11 9.73Z"></path></g><!----><g data-v-423bf9ae="" id="e49f6573-b7dd-4ad6-83d9-d687a87489c9" transform="matrix(1.066666751437717,0,0,1.066666751437717,85.63126719826654,-1.2944746264986975)" stroke="none" fill="white"><path d="M67.291 12.988c4.481-3.438 8.063-7.327 10.726-11.571H64.948c-3.325 3.016-6.955 5.254-9.874 6.781 4.646 1.76 8.498 3.933 11.118 5.61a57.89 57.89 0 0 0 1.099-.82zM67.196 87.26a42.328 42.328 0 0 0-4.076-2.888.075.075 0 0 1 .012-.007c-.17-.104-.359-.212-.538-.317a49.42 49.42 0 0 0-5.758-2.986 50.88 50.88 0 0 0-6.166-2.329 1.63 1.63 0 0 1-.144-.051c-.366-.147-4.723-1.944-9.599-5.396-.155-.108-.31-.219-.464-.33l-.076-.055a45.338 45.338 0 0 1-3.801-3.046h.041c-2.131-1.928-4.163-4.177-5.821-6.74h-.068c-1.926-2.988-3.308-6.406-3.724-10.258h47.223c-.394 3.876-1.7 7.291-3.539 10.258H34.943c2.071 2.665 4.585 4.916 7.037 6.74h23.015c-3.337 3.036-6.988 5.288-9.92 6.821 4.646 1.76 8.498 3.933 11.118 5.609.364-.267.731-.537 1.099-.819 10.678-8.192 16.323-18.919 16.323-31.019 0-12.608-6.005-23.289-16.418-31.665a41.98 41.98 0 0 0-4.076-2.888l.012-.007c-.17-.103-.359-.211-.538-.317a49.265 49.265 0 0 0-5.758-2.986 51.046 51.046 0 0 0-6.166-2.33 2.03 2.03 0 0 1-.144-.05c-.366-.148-4.723-1.945-9.599-5.396-.155-.109-.31-.219-.464-.331l-.076-.055a45.11 45.11 0 0 1-3.755-3.005H23.401c4.215 6.514 10.052 11.273 15.123 14.515-.01.006-.021.011-.031.018 3.326 2.071 7.593 4.413 12.146 6.1a46.367 46.367 0 0 1 7.368 3.491l.126.072.178.106a43.317 43.317 0 0 1 4.244 2.819c.252.189.487.385.73.579h-.086c2.559 2.059 4.756 4.338 6.49 6.74h.085a25.642 25.642 0 0 1 2.217 3.811c.858 1.746 1.469 3.525 1.796 5.307.08.378.158.757.223 1.141H27.233c.616-3.685 2.025-7.111 4.235-10.259h33.963c-2.146-2.475-4.863-4.772-8.002-6.74H37.956c.245-.193.48-.389.732-.579 2.666-2.015 5.364-3.53 7.609-4.615-4.228-1.854-8.03-4.074-10.934-5.955-.453.316-.909.643-1.366.983-10.708 7.995-16.37 18.888-16.37 31.496 0 17.229 11.707 28.091 20.895 33.964l-.029.017c3.326 2.07 7.593 4.413 12.146 6.1a46.454 46.454 0 0 1 7.368 3.491l.126.072.178.106a43.138 43.138 0 0 1 4.244 2.819c.174.131.339.266.507.4h13.694c-2.535-3.608-5.773-7.109-9.56-10.156zM33.997 87.429c-3.955 2.953-7.216 6.304-9.764 9.988H38.18c.167-.135.333-.27.507-.4 2.666-2.016 5.364-3.53 7.609-4.615-4.228-1.854-8.03-4.074-10.934-5.955-.452.315-.908.642-1.365.982z"></path></g><!----></svg>