<svg data-v-423bf9ae="" xmlns="http://www.w3.org/2000/svg" viewBox="0 0 429 91" class="iconLeft"><!----><!----><!----><g data-v-423bf9ae="" id="3f686766-ab1b-4ae5-ab9a-de5927912aee" fill="white" transform="matrix(4.92206705261137,0,0,4.92206705261137,70.09458735334954,-3.2114974104039433)"><path d="M9.35 15.29C9.72 15.12 10.07 14.92 10.40 14.69L10.40 14.67L10.42 14.67C10.42 14.66 10.42 14.66 10.43 14.66C10.54 14.56 10.56 14.38 10.44 14.27L9.39 13.02C9.31 12.91 9.14 12.88 9.03 12.95C9.03 12.96 9.02 12.96 9.02 12.96C7.42 14.04 5.22 13.76 3.95 12.26C2.58 10.64 2.77 8.22 4.38 6.85C5.66 5.77 7.45 5.66 8.81 6.45C8.92 6.51 9.03 6.50 9.11 6.43L10.43 5.32C10.54 5.22 10.56 5.04 10.44 4.91L10.42 4.89L10.37 4.86C8.18 3.29 5.11 3.35 2.97 5.17C0.42 7.32 0.11 11.14 2.27 13.68C4.05 15.78 6.96 16.35 9.35 15.29ZM21.53 13.62C22.40 12.57 22.92 11.24 22.92 9.79C22.92 6.47 20.22 3.78 16.90 3.78C13.58 3.78 10.88 6.47 10.88 9.79C10.88 13.10 13.58 15.81 16.90 15.81L22.85 15.81C23.03 15.81 23.18 15.68 23.18 15.54L23.18 13.89C23.18 13.75 23.03 13.62 22.85 13.62ZM13.06 9.79C13.06 7.69 14.78 5.96 16.90 5.96C19.01 5.96 20.72 7.69 20.72 9.79C20.72 11.90 19.01 13.62 16.90 13.62C14.78 13.62 13.06 11.90 13.06 9.79ZM32.65 12.05C32.65 13.22 32.17 14.22 31.29 14.92C30.55 15.50 29.58 15.82 28.55 15.82C27.51 15.82 26.54 15.50 25.80 14.92C24.92 14.22 24.44 13.22 24.44 12.05L24.44 4.07C24.44 3.92 24.57 3.78 24.72 3.78L26.36 3.78C26.52 3.78 26.63 3.92 26.63 4.07L26.63 12.05C26.63 13.58 28.35 13.64 28.55 13.64C28.74 13.64 30.46 13.58 30.46 12.05L30.46 4.07C30.46 3.92 30.59 3.78 30.73 3.78L32.38 3.78C32.52 3.78 32.65 3.92 32.65 4.07ZM42.53 15.54C42.53 15.69 42.41 15.82 42.27 15.82L34.61 15.82C34.45 15.82 34.33 15.69 34.33 15.54L34.33 4.06C34.33 3.91 34.45 3.78 34.61 3.78L41.99 3.78C42.14 3.78 42.27 3.91 42.27 4.06L42.27 5.70C42.27 5.85 42.14 5.96 41.99 5.96L36.51 5.96L36.51 8.71L41.71 8.71C41.86 8.71 41.99 8.82 41.99 8.97L41.99 10.61C41.99 10.77 41.86 10.89 41.71 10.89L36.51 10.89L36.51 13.62L42.27 13.62C42.41 13.62 42.53 13.75 42.53 13.90ZM52.28 15.89L46.26 9.32L46.26 15.53C46.26 15.68 46.14 15.81 45.99 15.81L44.35 15.81C44.20 15.81 44.07 15.68 44.07 15.53L44.07 3.70L50.09 10.26L50.09 4.06C50.09 3.91 50.22 3.78 50.36 3.78L52.01 3.78C52.15 3.78 52.28 3.91 52.28 4.06ZM62.19 15.29C62.55 15.12 62.90 14.92 63.24 14.69L63.24 14.67L63.25 14.67C63.25 14.66 63.25 14.66 63.27 14.66C63.38 14.56 63.39 14.38 63.28 14.27L62.23 13.02C62.15 12.91 61.98 12.88 61.87 12.95C61.87 12.96 61.85 12.96 61.85 12.96C60.26 14.04 58.06 13.76 56.78 12.26C55.41 10.64 55.61 8.22 57.22 6.85C58.49 5.77 60.28 5.66 61.64 6.45C61.75 6.51 61.87 6.50 61.95 6.43L63.27 5.32C63.38 5.22 63.39 5.04 63.28 4.91L63.25 4.89L63.21 4.86C61.01 3.29 57.95 3.35 55.80 5.17C53.26 7.32 52.95 11.14 55.10 13.68C56.88 15.78 59.79 16.35 62.19 15.29ZM72.83 15.54C72.83 15.69 72.70 15.82 72.56 15.82L64.90 15.82C64.75 15.82 64.62 15.69 64.62 15.54L64.62 4.06C64.62 3.91 64.75 3.78 64.90 3.78L72.28 3.78C72.44 3.78 72.56 3.91 72.56 4.06L72.56 5.70C72.56 5.85 72.44 5.96 72.28 5.96L66.81 5.96L66.81 8.71L72.00 8.71C72.16 8.71 72.28 8.82 72.28 8.97L72.28 10.61C72.28 10.77 72.16 10.89 72.00 10.89L66.81 10.89L66.81 13.62L72.56 13.62C72.70 13.62 72.83 13.75 72.83 13.90Z"></path></g><!----><g data-v-423bf9ae="" id="370d8f52-4656-4c24-a449-0badebeb2806" transform="matrix(1.000001695421007,0,0,1.000001695421007,-22.098561181460454,-4.000161064859839)" stroke="none" fill="#FCC250"><path d="M74.006 95a3.004 3.004 0 0 1-2.989-3.305c.105-1.09 2.391-26.871-22.339-39-28.549-14.009-25.692-44.7-25.66-45.005a3.013 3.013 0 0 1 3.287-2.672 3.006 3.006 0 0 1 2.681 3.287c-.111 1.09-2.391 26.871 22.336 39 28.55 14.01 25.696 44.701 25.661 45.006A2.996 2.996 0 0 1 74.006 95zM25.998 95a3.004 3.004 0 0 1-2.982-2.695c-.089-.885-1.996-21.715 13.985-36.885a3.005 3.005 0 0 1 4.242.105 3.002 3.002 0 0 1-.111 4.242C27.263 72.934 28.965 91.514 28.986 91.695a2.996 2.996 0 0 1-2.684 3.287 2.621 2.621 0 0 1-.304.018zM60.934 45.407a3 3 0 0 1-2.069-5.174c13.87-13.166 12.17-31.746 12.153-31.934a2.99 2.99 0 0 1 2.684-3.281c1.541-.182 3.117 1.025 3.281 2.684.094.879 1.992 21.709-13.98 36.879a3.013 3.013 0 0 1-2.069.826z"></path><path d="M56.698 74H43.306c-1.658 0-3-1.342-3-3s1.342-3 3-3h13.392c1.658 0 3 1.342 3 3s-1.342 3-3 3zM61.555 86H38.446c-1.658 0-3-1.342-3-3s1.342-3 3-3h23.109c1.658 0 3 1.342 3 3s-1.342 3-3 3zM61.555 20H38.446c-1.658 0-3-1.342-3-3s1.342-3 3-3h23.109c1.658 0 3 1.342 3 3s-1.342 3-3 3zM56.698 32H43.306c-1.658 0-3-1.342-3-3s1.342-3 3-3h13.392c1.658 0 3 1.342 3 3s-1.342 3-3 3z"></path></g><!----></svg>